<?xml version="1.0" encoding="UTF-8"?>
<svg id="Layer_1" data-name="Layer 1" xmlns="http://www.w3.org/2000/svg" xmlns:xlink="http://www.w3.org/1999/xlink" viewBox="0 0 500 500">
  <defs>
    <style>
      .cls-1 {
        fill: #626464;
      }

      .cls-2 {
        fill: #d8d8d8;
      }

      .cls-3 {
        fill: #747475;
      }

      .cls-4 {
        fill: #656666;
      }

      .cls-5 {
        fill: #5d5d5d;
      }

      .cls-6 {
        fill: #6a6a6b;
      }

      .cls-7 {
        fill: #a1a1a1;
      }

      .cls-8 {
        fill: url(#linear-gradient-2);
      }

      .cls-9 {
        fill: #eaebeb;
      }

      .cls-10 {
        fill: #5c5d5d;
      }

      .cls-11 {
        fill: #585959;
      }

      .cls-12 {
        fill: #646565;
      }

      .cls-13 {
        fill: #6a6b6b;
      }

      .cls-14 {
        fill: #a7a7a7;
      }

      .cls-15 {
        fill: #c1c0c0;
      }

      .cls-16 {
        fill: #7d7e7e;
      }

      .cls-17 {
        fill: #676767;
      }

      .cls-18 {
        fill: #fff;
      }

      .cls-19 {
        fill: #606060;
      }

      .cls-20 {
        fill: #9d9d9d;
      }

      .cls-21 {
        fill: #a2a2a1;
      }

      .cls-22 {
        fill: #b4b5b6;
      }

      .cls-23 {
        fill: #bcbcbc;
      }

      .cls-24 {
        fill: #cac9c9;
      }

      .cls-25 {
        fill: #979796;
      }

      .cls-26 {
        fill: #bab9ba;
      }

      .cls-27 {
        fill: #cecece;
      }

      .cls-28 {
        fill: #5d5e5e;
      }

      .cls-29 {
        fill: #d3d3d3;
      }

      .cls-30 {
        fill: #616363;
      }

      .cls-31 {
        fill: #f0f0f1;
      }

      .cls-32 {
        fill: #717272;
      }

      .cls-33 {
        fill: #aeaeae;
      }

      .cls-34 {
        fill: #9e9e9e;
      }

      .cls-35 {
        fill: #bbbaba;
      }

      .cls-36 {
        fill: #b1b2b2;
      }

      .cls-37 {
        fill: #676867;
      }

      .cls-38 {
        fill: #a7a7a6;
      }

      .cls-39 {
        fill: #f1f1f2;
      }

      .cls-40 {
        fill: #cac9ca;
      }

      .cls-41 {
        fill: #dcdddc;
      }

      .cls-42 {
        fill: #6e6f6f;
      }

      .cls-43 {
        fill: #6b6b6b;
      }

      .cls-44 {
        fill: #5c5c5d;
      }

      .cls-45 {
        fill: #c1c0bf;
      }

      .cls-46 {
        fill: #979797;
      }

      .cls-47 {
        fill: #919090;
      }

      .cls-48 {
        fill: #6f6f70;
      }

      .cls-49 {
        fill: #9a9a9a;
      }

      .cls-50 {
        fill: #787879;
      }

      .cls-51 {
        fill: #c6c5c5;
      }

      .cls-52 {
        fill: #e4e5e5;
      }

      .cls-53 {
        fill: #737475;
      }

      .cls-54 {
        fill: #908f8f;
      }

      .cls-55 {
        fill: #dcdddd;
      }

      .cls-56 {
        fill: #636464;
      }

      .cls-57 {
        fill: #e8e8e9;
      }

      .cls-58 {
        fill: #f8fafb;
      }

      .cls-59 {
        fill: #858686;
      }

      .cls-60 {
        fill: #ebeced;
      }

      .cls-61 {
        fill: #6f7070;
      }

      .cls-62 {
        fill: #f4f5f6;
      }

      .cls-63 {
        fill: #90908f;
      }

      .cls-64 {
        fill: #6c6d6d;
      }

      .cls-65 {
        fill: #545555;
      }

      .cls-66 {
        fill: #616262;
      }

      .cls-67 {
        fill: url(#linear-gradient);
      }

      .cls-68 {
        fill: #808181;
      }

      .cls-69 {
        fill: #595a5b;
      }

      .cls-70 {
        fill: #e9eaeb;
      }

      .cls-71 {
        fill: #e0e2e2;
      }

      .cls-72 {
        fill: #dfe1e1;
      }

      .cls-73 {
        fill: #7c7d7d;
      }

      .cls-74 {
        fill: #a6a6a5;
      }
    </style>
    <linearGradient id="linear-gradient" x1="298.43" y1="113.79" x2="280.02" y2="185.46" gradientTransform="scale(.46)" gradientUnits="userSpaceOnUse">
      <stop offset="0" stop-color="#616262"/>
      <stop offset="1" stop-color="#858686"/>
    </linearGradient>
    <linearGradient id="linear-gradient-2" x1="186.48" y1="279.86" x2="125.08" y2="297.9" gradientTransform="scale(.46)" gradientUnits="userSpaceOnUse">
      <stop offset="0" stop-color="#888"/>
      <stop offset="1" stop-color="#656666"/>
    </linearGradient>
  </defs>
  <path class="cls-19" d="M145.83,42.13c.47-.23.8-.71,1.57-.49h206.1c.99-.18.58.87.67.96l.93,1.96v100.25l-.93.57c-69.45.28-139.04.36-208.75.23-.04-4.08.1-8.17.41-12.27l-.62-2.42c.39-6.43.6-12.87.62-19.34-.07-3.87-.26-7.74-.58-11.61l.58-.89c.01-2.67-.27-5.24-.86-7.7.22-12.02.25-23.88.09-35.6-4.01.39-8.05.64-12.11.75l-.54-.97c1.39-1.36,2.77-2.79,4.17-4.17l1.77-.75c6.01-.36,7.4-.76,6.54-7.12l.95-1.38Z"/>
  <path class="cls-19" d="M55.09,132.87l.92.42c-.23,3.98-.27,7.87-.11,11.66,2.16-.39,3.59-.1,4.29.88,12.55-1.54,25.37-1.12,37.96,0,3.39-.39,6.79-.34,10.19,0,8.19-.38,16.37-.38,24.54,0,4.49-.54,8.86-.59,13.12-.16l-.39.6c.13,69.37.05,138.67-.23,207.89,0,.36-.1.92-.32.93-31.74.3-64.52.6-96.4,0-2.25.32-4.27.01-6.05-.93-.08-.08-1.14.33-.96-.67v-206.1c-.21-.77.27-1.1.5-1.57l1.68-.97c1.79.22,3.55.17,5.28-.16.59-2.58,1.2-5.13,1.83-7.66,1.37-1.4,2.81-2.77,4.17-4.17Z"/>
  <path class="cls-19" d="M208.8,354.63c.89.3,1,1.37.31,3.2,2.19-1.4,4.83-.36,3.13,2.24,1.41.93,3.28,2.44,4.23,3.88,1-.62,2.01-.34,3.04.84,1.71-1.5,3.33-.33,2.16,1.75l.86.47c2.91-.57,2.89.94,2.75,3.31-1.66,1.2.12,5,2.35,3.87,2.06-1.5,4.6.4,5.61,2.31,2.47-.09,3.06.26,3.52,2.77.96-2,2.4-1.72,4.32.85,2.27-.47,3.1,1.38,3.51,3.31,1.09.34,1.22.98,1.22,1.99l1.2.25c1.94-1.58,3.91-.11,4.65,2.03.97-.09,1.54.5,1.46,1.45l1.59.44c1.46-1.15,2.71-.37,3.77,2.36,2.08-1.99,2.8-.3,3.06,1.86,1.2.31,2.16.56,3.02,1.54,2.37-.6,4.15-.27,5.33.97,1.39-.93,3.78.25,3.5,1.88,0,0,0-.14.04-.16.64-.18,1.24.17,1.69.64.94,2.51,1.75,2.79,4.14,1.43,1.3.98,2.53,1.83,3.7,2.55.51-3.33,3.76-3.1,2.91.29,1.14.53,1.34.59,2.38-.21,1.82,1.36,4.05,2.64,6.43,3.73,1.84-2.13,3.85-.88,5.29,1.11,2.05-.3,3.32-.23,4.74,1.45,1.98-1.01,3.38-.84,4.19.51,2.13-.35,4.04-.02,5.71,1.01l1.32-.74c1.44.6,2.89,1.34,4.34,2.2,2.2-1.35,3.75-1.16,4.65.58.98-.98,2.06-.7,2.88.34,1.71-.71,2.64-.4,3.11,1.48,2.19-.78,3.71-.3,5.63.86,1.72-.59,2.94-.27,3.66.96l.67-.46c4.05.55,8.19,1.09,12.42,1.6l.63.95c-.07,4.09.01,8.17.26,12.24.91,1.37.91,2.79,0,4.17.85.33,1.09,1.24.7,2.72,9.87-1.77,19.35-5.1,28.15-9.95.88.2,1.07.67.31,1.21-1.5,2.18-3.72,3.72-5.56,5.56l-3.44,2.26-19.02,7.02c-.35,1.89-.42,3.81-.23,5.76l-.92.7c1.31,2.33,1.35,5.09,0,7.41-.08.08.33,1.14-.67.96h-207c-.92.17-.61-.91-.66-.96-.41-.07-.83-.84-.92-1.27,0-33.66,0-67.3,0-100.94l.93-.57c20.42-.4,42.38-.41,62.96,0Z"/>
  <path class="cls-19" d="M457.41,145.83c.08.08,1.14-.33.96.67v207c.18.99-.88.58-.96.67-3.08,1.45-7.53,1.38-10.65,0l-.2.62c-1.86-.07-3.28.32-4.25,1.19-1.81,8.2-4.63,15.84-8.97,22.73-1.38,1.4-2.8,2.77-4.17,4.17-1.04.32-1.31-.27-.91-1.24,2.04-2.94,10.02-25.13,8.97-26.59-1.55.27-2.54-.03-2.97-.88-.58,1.25-1.28,1.26-1.85,0-3.13-.18-6.21-.33-9.26-.46-1.36.36-2.81.36-4.17,0-.78-.12-1.94-2.15-2.07-2.88.83-2.34.9-5.35-1.13-7.05.3-.8.18-1.58-.34-2.33.66-1.05.54-2.35.23-3.54-.34-1.29-.73-2.37-1.54-3.35.7-1.83.66-2.77-.53-4.51l.12-.8c-1.42-1.49-2.07-3.73.45-4.15.06-.44-.36-1.01-1.27-1.71-.03-2.74-.81-4.9-2.36-6.47.5-1.53.17-3.08-1-4.63,1.16-1.75.93-3.55-.68-5.38.38-2.13.38-3.76-.03-5.83-2.06-.76-2.74-2.4-2.04-4.93-1.89-.85-2.42-2.44-.91-4.06-2.35-1.71-2.8-2.36-.63-4.31-1.25-1.49-2.49-2.89-3.7-4.21.63-.83,1.05-1.56,1.24-2.16-1.26-.69-1.65-1.94-.86-3.14-1.54-1.91-1.14-2.71.85-3.29-1.15-.66-2.53-1.53-3.16-3.04-2.64,3.93-5.33.27-2.06-1.86-1.26-.75-.96-1.58-.18-2.63-.1-1.56-1.22-2.84-3.38-3.85.22-1.63-.22-3.12-1.32-4.47,1.25-2.8.79-4.25-1.39-4.35l-.68-.78c-2.4.45-4.81-3.42-2.52-5.28-.52-.79-.48-1.35.34-1.95,0,2.59-3.24.47-1.61-1.4,1.31-1.5,2.64-.08,1.61,1.4.82-1.21-.04-2.02-2.58-2.44l-1.24-1.35c-.65-1.89-1.03-3.75-1.13-5.56-1.96-.52-3.26-1.22-3.55-3.32-1.24-.75-2.31-1.68-3.1-2.94-1.2-1.93-.75-2.56.41-4.07s-2.68-2.81-4.09-3.3v-1.1c1.81,1.86-2.1,3.36-2.77.51-.61-2.6,2.87-3.58,2.77-.51-1.65-2.4.27-3.41-.43-2.19-.93,1.62-3.62-1.14-2.39-2.89-1.01-1.25-1.78-3.34-1.55-4.72l-1.19.07c1.56-.72,1.93-.51,1.11.63.42,3.11-4.41.24-1.11-.63-1.22,1.98-2.66.78-2.51-1.52l-1.52-.18c-2.2,1.41-3.44.92-3.8-1.49-2.37-.92-3.36-2.03-2.97-3.32-1.17,2.22-1.89,2.54-2.16.96-.4-19.96-.41-41.45,0-61.57l.32-.93h100.5l1.96.93Z"/>
  <path class="cls-65" d="M145.37,354.17c.13-.4.29-.4.46,0,.4.13.4.29,0,.46v102.78c-.07-.06-.53.06-.75-.16-34.06-34.39-68.21-68.85-102.49-103.08h102.78Z"/>
  <path class="cls-65" d="M457.41,145.83h-102.78c-.13.4-.29.4-.46,0-.4-.13-.4-.29,0-.46V42.59c34.38,34.43,68.81,68.86,103.24,103.24Z"/>
  <path class="cls-67" d="M145.83,99.07c-1.29.28-1.76-1.8-.46-2.31-.7-3.01-1.99-5.12-4.29-7.25-8.07-7.48-17.04-13.34-28.12-14.97,6.38-6.46,12.95-12.64,19.44-18.98l3.7.27c2.59-1.18,4.84-.66,7.38-.49.7.05,1.87-1.33,2.7.53l-.36,43.21Z"/>
  <path class="cls-8" d="M74.07,113.43c2.23,11.99,9.58,26.86,21.3,31.94.16-1.74,3.29-.81,2.78.46-12.64-.01-25.33.17-37.96,0l-1.03-.55c-1.01-5.28-1.56-12.01.57-17.04,4.82-4.93,9.43-9.95,14.35-14.81Z"/>
  <path class="cls-33" d="M109.72,77.78c3.21-.66,8.45,1.71,11.32,3.49,14.83,9.2,26.03,29.4,16.93,46.14-15.35,28.27-57.62,10.07-60.67-17.23.31-.31.62-.62.93-.93l.63.38c.98,3.76,2.56,7.25,4.75,10.49l-.28.7c13.7,18.42,39.13,23.62,51.56,1.36.95-1.7,1.56-11.5,1.3-13.6-1.2-9.75-8.79-20.78-17.21-25.72-1.48-.12-3.06-.78-4.73-1.99-1.93-.71-3.75-1.44-5.46-2.18.31-.31.62-.62.93-.93Z"/>
  <path class="cls-14" d="M121.3,80.56c40.54,23.09,19.79,82.13-25.93,56.94l-1.59-.04c-4.43-3.36-8.49-7.15-11.78-11.64-2.76-3.77-6.04-10.59-5.15-15.17.15-.15.31-.31.46-.46.87,5.14,3.24,10.11,6.3,14.3,9.86,13.49,32.11,22.69,46.71,10.7,19.91-16.36,6.93-46.63-13.96-55.49-2.05-.87-4.4-1.79-6.65-1.92.31-.3.62-.62.93-.93,3.02-.28,7.48,1.47,10.35,2.95.18.09.26.39.3.75Z"/>
  <path class="cls-22" d="M118.98,82.87c17.8,10.7,25.78,39.27,4.72,50.96-2.74,1.52-6.59,3.18-9.68,2.33-2.97,1.79-8.87-.09-12.11-1.19-8-2.73-13.33-7.6-18.57-14.13-2.26-3.5-4.89-7.25-5.09-11.57.31-.31.62-.62.93-.93,2.71,7.36,6.6,13.42,13.25,18.07,8.76,6.13,21.8,8.19,30.82,1.52,13.85-10.23,8.93-30.46-2.41-40.85-3.88-3.56-8.38-5.8-12.96-7.44.31-.31.62-.62.93-.93,3.64.11,7.3,2.02,10.19,4.17Z"/>
  <path class="cls-15" d="M118.06,85.65c32.49,31-9.29,64.92-35.19,29.63-1.66-1.1-3.69-5.71-2.78-7.87.27-.28.41-.8.93-.93,3.72,14.97,26.8,25.71,38.76,13.66s1.23-35.05-13.76-38.66c.13-.52.65-.65.93-.93.64-.46,1.13-.45,1.86-.35,2.98.39,6.6,2.82,9.07,4.5.34.23.42.49.19.94Z"/>
  <path class="cls-61" d="M423.15,354.17c.93-.34,1.87-.37,2.78,0l1.45.47c1.62,16.69-5.4,34.37-16.26,46.76-2.93,2.93-5.85,5.88-8.8,8.8-13.08,11.39-30.48,18.41-47.59,16.19l-.56-1.84c-.34-.91-.29-1.85,0-2.78,1.22.51,2.07.69,3.67.84,16.56,1.49,34.13-5.06,46.33-16.58,12.79-11.66,20.16-31.26,18.51-48.3-.15-1.57-.29-2.24-.91-3.55.46-.34.94-.34,1.39,0Z"/>
  <path class="cls-7" d="M145.37,115.74c.38,1.36.39,2.81,0,4.17l-.44,1.78c.62,11.69-11.36,23.09-22.71,23.68-4.6.43-9.29.42-13.89,0-.82.36-1.93.38-2.78,0-14.93-2.56-28.68-19.04-29.63-33.8.31-.3.62-.62.93-.93.08,3.17,1.78,7.96,3.32,10.8,3.38,6.21,9.59,11.89,15.2,16.05,35.37,21.32,63.51-16.6,38.04-46.91l-.08-.78c.34-.29.74-.39,1.04-.09,7,7.15,10.82,16.09,11,26.02Z"/>
  <path class="cls-26" d="M107.87,79.63c1.85-.04,3.56.79,5.19,1.52,11.74,5.27,20.92,19.36,19.3,32.46-.23,1.83-.43,2.19-.49,4.23,0,.13-.72,1.26-1.08,2.05-5.21,11.43-17.05,15.11-28.68,12.02-10.44-2.77-20.71-12.92-22.94-23.59.31-.31.62-.62.93-.93-.27,2.24,1.66,5.81,2.78,7.87,25.5,35.31,67.81,1.21,35.19-29.63-3.06-2.19-7.28-5.19-11.11-5.09.31-.3.62-.62.93-.93Z"/>
  <path class="cls-29" d="M104.63,82.41c9.42,2.97,16.89,13.5,15.93,23.59-.36,3.76-1.49,7.92-4.88,9.96-.88,2.79-7.16,4.73-10.02,5.01-9.81.96-21.75-6.57-23.25-16.34.35-.43.67-.64.93-.93,3.07,8.27,12.46,13.96,21.32,12.3,16.65-3.12,13.01-24.6.9-31.28-.57.77-1.81-.35-2.31-.93.46-.42.67-.84,1.39-1.39Z"/>
  <path class="cls-37" d="M395.37,416.67c-2.5,2.41-4.89,4.98-7.41,7.41-8.89,7.05-20.51,9.65-31.81,11.21l-1.99-.56c0-1.39,0-2.78,0-4.17-.23-.93-.38-1.87,0-2.78,14.11,0,28.01-3.6,40.3-11.35l.9.24Z"/>
  <path class="cls-24" d="M105.56,81.48c11.46,2.59,20.49,15.86,19.02,27.42-1.91,15.04-17.53,20.06-30.34,13.23-5.46-2.91-13.11-9.97-12.75-16.57.08-.16.34-.3.46-.46,4.15,14.5,28.56,23.68,36.76,8.1,6.26-11.91-2.43-26.05-13.61-31.25.13-.08.27-.41.46-.46Z"/>
  <path class="cls-51" d="M106.02,81.48c5.15-.34,13.42,7.86,15.91,12.1,7.14,12.15,4.26,29.26-11.19,32.21-10.18,1.95-20.84-3.59-26.68-11.93-1.3-1.85-3.33-5.19-3.04-7.38.08-.65.33-.65.46-.93-.04,3.93,3.42,8.04,6.02,10.74,6.77,7.02,16.89,9.94,26,6.33.93-.37,1.3-.4,2.11-.71s4.66-4.26,5.2-5.14c1.33-2.14,3.48-8.85,3.16-11.33-.92-7-3.53-13.42-8.92-18.41-2.67-2.47-6.07-4.44-9.5-5.57.13-.03.3.01.46,0Z"/>
  <path class="cls-17" d="M432.41,354.17c.62.01,1.24-.02,1.85,0,.21.33.4.66.54,1.02.95,2.57-1.94,13.61-2.93,16.9-1.86,6.14-4.03,11.01-7.79,15.87-2.3,2.33-4.64,4.63-6.94,6.94l-.13-.88c6.54-11.63,12.22-25.93,10.77-39.3l.93-.56c1.17-.3,2.41-.3,3.7,0Z"/>
  <path class="cls-27" d="M105.09,81.94c4.27,1.7,8.46,4.71,11.3,8.37,12.25,15.77,1.79,37.1-18.7,30.73-6.49-2.02-14.73-8.97-15.75-15.96.13-.17.33-.3.46-.46-.2,1.55.9,2.87,1.66,4.13,4.83,8,15.59,13.63,24.82,10.55.66-.22,5.68-2.44,5.91-2.67.05-.05-.44-.62-.34-.8.26-.45,2.71-2.05,3.09-2.78,5.19-10.13.52-21.88-8.33-28.06-1.44-1-3.1-1.68-4.59-2.59.17-.13.3-.37.46-.46Z"/>
  <path class="cls-44" d="M377.78,434.26c-3.24,3.25-6.44,6.51-9.72,9.72-4.13,2.18-8.33,4.36-12.57,6.54l-1.32-.53c.02-1.67-.39-6.21.46-7.18l23.15-8.56Z"/>
  <path class="cls-71" d="M102.78,84.26c12.47,4.64,16.72,26.22.82,29.78-7.35,1.64-18.1-3.47-19.33-11.26.31-.33.63-.61.93-.93,5.57,12.67,28.06,11.44,24.35-5.57-1.13-5.19-3.73-7.97-7.69-11.09.31-.29.59-.62.93-.93Z"/>
  <path class="cls-69" d="M457.41,354.17c-6.09,6.08-12.04,12.41-18.06,18.52-2.27-.01-.77-4.08.78-4.4.84-1.4,1.09-3.06,1.29-4.67,2.16-2.15,2.71-5.04,2.38-7.92,1.08-.34,2.06-.85,2.96-1.52,3.54-.11,7.11.08,10.65,0Z"/>
  <path class="cls-55" d="M105.56,84.72c13,7.13,14.95,29.05-2.08,31.45-7.77,1.1-18.61-4.8-19.68-12.94.15-.16.31-.3.46-.46,2.01,6.94,11.19,11.55,18.17,10.53,13.24-1.94,13.04-17.47,4.98-25.57-1.27-1.27-3.22-2.34-4.63-3.47.16-.15.3-.32.46-.46,1.05-.24,1.62.64,2.31.93Z"/>
  <path class="cls-70" d="M101.39,85.65c6.21,2.15,10.36,11.72,7.72,17.74-4.67,10.64-20.49,8.36-23.46-2,.31-.31.63-.62.93-.93,11.48,13.9,27.33-1.49,13.75-13.25l.14-.64c.31-.31.61-.62.93-.93Z"/>
  <path class="cls-64" d="M402.31,410.19c-2.27,2.25-4.66,4.28-6.94,6.48-3.71,1.79-7.07,4.35-10.87,6.03-4.66,2.07-10.76,3.84-15.63,4.78-3.11.6-5.24.67-7.99.72-1.99.04-5.41,1.32-6.72-.43-.41-1.07-.38-2.16,0-3.24.45.74.84,1.08,1.72,1.26.83.17,7.57-.02,8.86-.12,14.09-1.13,24.68-6.4,35.61-14.55.59-.44,1.2-.83,1.96-.94Z"/>
  <path class="cls-30" d="M434.26,354.17c1.46.04,3.92-.57,4.63.92-1.53-.13-.54.8-.72,1.44-2.61,9.43-4.33,15.69-8.63,24.65-.25.53-.85,1.11-.37,1.69-1.68,1.72-3.41,3.39-5.09,5.09-.07-2.44,1.71-3.34,2.57-5.07,4.31-8.63,6.88-19.13,7.61-28.73Z"/>
  <path class="cls-2" d="M83.33,103.7c.15-.16.32-.3.46-.46,1.44,6.95,9.68,11.53,16.29,12.17,3.22.31,8.5-1.09,10.81-3.36,1.42-1.4,3.49-5.27,3.87-7.23,1.57-8.14-3.09-15.22-9.2-20.1,7.53,3.12,12.23,12.85,11,20.96-1.4,9.24-11.5,13.24-19.89,10.85-5.27-1.51-12.38-7.06-13.33-12.82Z"/>
  <path class="cls-66" d="M387.96,424.07c-1.33,1.28-2.97,3.84-4.63,4.63-.02.01.07-.38-.23-.45-8.74,5.33-18.65,8.44-28.66,10.11-.94-.28-.28-2.56-.28-3.64,5.76-1.15,11.54-1.74,17.21-3.39,2.57-.75,6.46-2.31,8.62-3.51l7.96-3.75Z"/>
  <path class="cls-28" d="M446.76,354.17c.61,2.27-2.08,1.52-2.32,1.85-.05.07.43.96.42,1.58-.07,2.39-1.17,5.28-2.63,6.36.16,1.05-1.05,6.3-2.39,5.03-.05,1.22-1.29,2.51-.49,3.7-1.99,2.02-4.04,4-6.02,6.02-.77-.9-.18-1.18.16-1.9,1.28-2.7,2.89-5.18,4.03-8.04,1.64-4.14,2.71-8.89,3.95-13.18,1.12-2.05,3.31-1.36,5.29-1.43Z"/>
  <path class="cls-52" d="M85.19,101.85c.15-.16.31-.31.46-.46,2.42,6.98,11.68,9.77,18.17,6.92.36-.16.39-.67.7-.9.39-.29,1.06-.22,1.4-.6.54-.61,1.55-2.83,2-3.68.19-.35.69-.35.77-.58.92-2.61-.1-7.77-1.19-10.28-1.35-3.11-3.55-4.63-6.11-6.62.16-.15.3-.31.46-.46,8.09,3.65,12.61,16.62,5.35,23.17-4.34,3.92-10.06,3.59-15.09,1.15-2.7-1.31-6.84-4.37-6.93-7.66Z"/>
  <path class="cls-43" d="M428.7,354.17c-.09,1.82.53,4.57.44,6.23-.36,6.17-3.43,17.19-5.85,22.94-1.7,4.03-4.29,7.64-6.16,11.58-2.04,2.04-3.85,4.32-6.02,6.48-.18-2.12,2.51-3.4,3.44-4.64,7.07-9.43,12.93-28.26,12.34-40.04-.05-1.09-.22-1.73-.97-2.54.92-.4,1.87-.41,2.78,0Z"/>
  <path class="cls-56" d="M60.19,145.83c-.84-.01-4.89.15-5.06-.03-.31-.32-.96-3.79-.18-4.43l.15-8.5c1.53-1.57,3.11-3.08,4.63-4.63.09,2.65-.53,4.97-.46,7.67s.24,2.91.04,5.49c-.08,1.04.76,3.22.88,4.43Z"/>
  <path class="cls-31" d="M100.46,86.57c2.16,1.33,4.83,4.78,5.52,7.22.19.66.55,5.84.42,6.43-.05.25-.6.23-.64.34-.14.33.02.72-.18,1.05-3.8,6.31-11.01,6.76-16.65,2.27-1.04-.83-2.51-1.93-2.36-3.43.31-.32.63-.62.93-.93,3.06,5.71,13.33,6.11,15.47-.7,1.36-4.33-.77-8.16-3.43-11.34.31-.3.62-.62.93-.93Z"/>
  <path class="cls-46" d="M112.5,75c8.52.17,17.47,4.98,23.93,10.45,3.47,2.94,7.73,6.97,8.94,11.31.09.84.45,2.04.46,2.31.22,4.06-.05,8.4,0,12.5-.13.4-.29.4-.46,0-.63-1.51-1.28-3.88,0-5.09-3.11-15.45-18.56-27.8-33.8-30.56.31-.31.62-.62.93-.93Z"/>
  <path class="cls-58" d="M87.96,99.07c.72-.74,1.22-1.86,2.31-2.31.01,3.09,4.96,3.16,7,1.22s2.18-7.2-.98-7.23c.6-1.24,1.88-1.91,2.78-2.78,6.63,4.12,5.59,15.37-3.45,15.86-2.8.15-7.91-1.47-7.67-4.75Z"/>
  <path class="cls-18" d="M96.3,90.74c.33-.2,2.16-1.03,2.31-.93,3.29,7.55-1.81,12.68-9.25,9.25-.11-.15.73-1.98.93-2.31.79-1.29,4.73-5.24,6.02-6.02Z"/>
  <path class="cls-25" d="M75.46,112.04c2.71,14.64,14.83,30.97,30.09,33.33.92.03,1.85-.02,2.78,0,.4.13.4.29,0,.46-3.39,0-6.8,0-10.19,0-.51-.79-1.9-.44-2.78-.46-11.3-5.56-19.9-19.81-20.83-32.41.31-.3.61-.62.93-.93Z"/>
  <path class="cls-34" d="M111.57,75.93c15.19,2.72,30.58,15.01,33.8,30.56.07,1.69-.03,3.4,0,5.09.37,1.36.38,2.81,0,4.17-1.26-1.17-.45-3-.67-4.19-1.16-6.1-3.55-11.85-7.1-16.98-1.2-1.74-2.49-3.56-4.27-4.76-3.65-3.44-7.66-6.53-12.04-9.26-3.39-1.58-6.9-3.18-10.65-3.7.31-.31.62-.62.93-.93Z"/>
  <path class="cls-63" d="M112.96,74.54c4.12-.03,8,1.29,11.72,2.82,5.08,2.09,10.14,5.67,14.64,9.04.92.69,5.91,6.19,6.04,6.9.2,1.06-.1,2.36.01,3.46-7.82-10.93-19.18-19.88-32.87-21.76.15-.16.31-.31.46-.46Z"/>
  <path class="cls-47" d="M74.54,112.96c1.33,9.87,6.5,17.98,12.78,25.42l8.06,6.99c-3.89-.12-4.34-.64-7.13-3.29-4.27-4.05-8.81-11.04-11.1-16.27-.51-1.16-.7-1.61-1.27-2.84-1.11-2.42-1.3-6.84-1.8-9.55.16-.15.31-.31.46-.46Z"/>
  <path class="cls-11" d="M368.06,443.98c-4.58,4.49-9.35,8.88-13.89,13.43.02-2.46-.03-4.94,0-7.41,4.15-1.28,8.02-4.42,11.88-5.97.76-.31,1.21-.7,2.01-.05Z"/>
  <path class="cls-49" d="M75.93,111.57c-.04,2.82,1.15,6.04,2.23,8.65,4.78,11.48,15.48,21.43,27.4,25.15-2.41-.08-4.58.28-6.9-.74-3.68-1.61-11.24-8.28-13.67-11.32-4.64-5.79-8.93-13.79-9.52-21.28.16-.15.31-.31.46-.46Z"/>
  <path class="cls-62" d="M99.54,87.5c8.31,5.79,5.37,19.13-6.14,17.02-1.95-.36-6.28-2.51-5.9-4.98.15-.16.31-.31.46-.46,1.24,3.57,6.56,4.47,9.72,3.47,6.43-2.05,5.73-10.58,1.39-14.58.16-.15.31-.31.46-.46Z"/>
  <path class="cls-10" d="M136.57,51.39c2.09-2.05,7.09-8.2,9.26-9.26-.32,2.24.74,6.16-.66,7.92-.66.83-7.18,1.97-8.6,1.34Z"/>
  <path class="cls-5" d="M42.13,145.83c1.03-2.12,6.82-6.78,8.8-8.8.96.93-.73,7.93-1.15,8.35-1.07,1.05-5.94.16-7.65.45Z"/>
  <path class="cls-54" d="M145.83,133.33c.01,4.01,0,8.03,0,12.04h208.34s0,.46,0,.46c-69.27.8-138.54,1.09-207.81.52.56,69.27.28,138.54-.52,207.81h-.46v-208.34c-4.16,0-8.34.01-12.5,0-.73-1.68,1.92-2.08,2.31-.46l2.28-.87c3.16.81,5.53-1.31,7.05-3.75-.25-2.2.03-4.21.85-6.03-1.57-.33-1.07-2.01.46-1.39Z"/>
  <path class="cls-49" d="M145.83,133.33c-.6.22-.45.88-.46,1.39-1.17,4.64-5.63,9.22-10.19,10.65-.74.01-1.92-.28-2.31.46-8.17-.02-16.37,0-24.54,0v-.46c4.6.08,9.29.11,13.89,0,6.23-.66,12.9-2.71,16.24-8.29l.97-.31,4.98-8.24c.25-2.9.57-5.77.96-8.62.02-1.39,0-2.78,0-4.17s.02-2.78,0-4.17h.46c.09,7.24-.02,14.52,0,21.76Z"/>
  <path class="cls-1" d="M294.91,354.63c1.74.2,1.73.92,1.54,2.44,2.32,1.25,3.23,2.72,2.73,4.4,2.23.85,2.84,2.58,1.83,5.19,3.18.71,5.24,3.92,5.6,7,1.99.73,3.47,2.48,4.47,5.25,11.44,12.98,26.4,24.12,42.27,30.64l.36,1.1c.13,2.42.28,4.89.46,7.41.9.58.9,1.27,0,1.85.38.77.38,1.39,0,1.85,0,.93,0,1.85,0,2.78,0,1.08,0,2.16,0,3.24,0,.93,0,1.85,0,2.78-1.29-1.69.19-11.18-.52-11.98-1.48-1.05-4.36-.41-5.52-.79-2.45-.81-2.22-.35-4.81-.66-1.03-.12-1.13-1.3-2.44-.28-.21.16-.13.72-.16.74-.92.56-1.29-1.32-2.06-1.69-.33-.16-1.64.4-2.28.28-1.05-.2-1.83-1.15-2.92-1.26-.96-.1-2.64.74-3.31.31-.29-.18-.42-1.72-.52-1.8-.21-.16-1.7.62-2.48.49-.32-.06-.35-.92-.52-.96-1.35-.35-1.1.78-1.23.84-1.22.57-1.6-1.71-2.08-1.79-.97-.16-2.51,1.13-3.57.98-.29-.04-.25-.75-.65-.91-.61-.25-1.45-.08-2.13-.48-.39-.23-.16-.99-.54-.95-.71.06-1.08.86-1.76.85-.8-.01-1.64-.91-2.42-1.04-1.03-.18-2.92.27-3.8-.1-.58-.24-.5-.99-.87-1.06-.75-.14-2.65.77-2.98.69-.86-.21-1.44-1.36-2.17-1.57-.99-.28-2.02.41-2.79.06-1.02-.46-.86-2.12-2.65-1.52.46-2.45-1.33.47-2.31.46-1.12-.01-4.38-2.84-6.26-2.32l.46-1.38c-1.18-.5-.85.93-1.16.95-.92.06-1.29-.64-1.94-.8-.36-.09-.99.4-1.06.31-.37-.48.66-2.55.46-2.78-1.17-1.27-1.29,2.2-1.39,2.32-.09.1-2.62-.45-2.71-.55-.22-.23.04-1-.11-1.23-.06-.09-.67.29-.9.13-.44-.31-.38-1.06-.46-1.12-.13-.11-2.72,1.47-3.24,1.19-.87-.46-.63-2.35-2.77-1.66l.69-2.31c-.25,1.06-1.45,1.66-2.09.92-.16-.19.53-1.2.43-1.34-.05-.08-1.49-.95-1.59-.96-1.17-.12.64,2.6-1.41,1.66-1.02-.47-.06-1.64-.98-2.19s-3.47.28-4.44-.02c-.56-.17-.85-.81-1.31-1.04-.57-.28-1.34-.23-1.79-.52-1.25-.8-.23-2.2-1.18-2.99-2.32,3.48-3.24-1.78-3.71-1.86-.5-.08-.93.68-1.39.74-.16.02-2.8-.58-2.87-.96-.05-.3.49-.93.33-1.17-.11-.16-.66.46-.83.37-.89-.46-1.35-2.38-1.48-2.46-.63-.42-1.72,1.32-1.4-1.15l-.93,1.85c-1.54-1.18-3.14.15-2.78-2.78l-1.38.46c.67-.76-.56-3.36-1.02-3.61-.54-.29-1.39.08-1.88-.11-.42-.17-.57-1.34-1.74-.91.79-1.13.14-.84-.91-1.38-1.72,5.31-2.26-.73-2.82-1.37-.08-.09-1.3.56-2.38-.02-.6-.33-.79-1.33-1.51-1.86-.98-.72-3.68-1.88-3.02.48,2.41-1.43-.37,2.05-.93,1.38l.46-2.31c-3.78,1.5-2.78-2.62-5.55-3.94.48-1.04,1.72-.09,2.09-.69.29-.47-.25-2.02.22-2.79-.86.41-2.18.57-3,.01-2.19-1.49.34-2.06-.24-2.79-1.1.7-1.27.06-1.12.92.26,1.49-2.24-1.28-2.81-1.37-.64.03.06,1.82-1.39,1.83-1.02,0-.33-2.02-.47-2.34-.23-.52-1.36-.91-1.86-1.36-.77-.68-.34-1.78-1.72-1.3-.5.18-1.79,1.55-1.51-.1.07-.41,1.6-1.93,1.63-2.76-1.74-.81-2.53.79-4.16.92l.92-4.63c28.7-.36,57.41-.37,86.11,0Z"/>
  <path class="cls-41" d="M354.63,207.41c1.14,25.92,1.13,51.86,0,77.78,1.15,8.47,1.14,16.99,0,25.46,1.15,6.48,1.14,12.97,0,19.44,1.15,3.72,1.14,7.39,0,11.11.99,4.13,1.24,8.35.57,12.54.59-.3,1.2-.58,1.85-.71,3.11-.62,18.92-.85,21.34.05.43.16.84.38,1.25.62,1.42.18,2.81.34,4.17.46,3.2.13,5.54,2.57,7.22,5.09,17.5,26.23-7.6,48.89-32.58,30.93-2.62-1.88-4.04-3.48-4.27-6.85l-.96-.74c-.82-8.78-1.05-18.52.51-27.41-3.88.67-7.78.43-11.59-.56-3.72,1.14-7.39,1.15-11.11,0-6.01,1.14-12.04,1.15-18.06,0-6.01.91-12.05.91-18.06,0-28.7-.02-57.41,0-86.11,0h-62.96v-.46c69.27-.8,138.54-1.09,207.81-.52-.56-69.27-.28-138.54.52-207.81h.46v61.57Z"/>
  <path class="cls-30" d="M354.63,207.41l.93.69c-1.73-3.72,6.22-2.47,1.38-.92.14.34,2.96,1.07,3.75,2.3s-1.27,1.58,1.56,1.64c1.09-1.07-1-1.01-1.15-1.64-.11-.45.72-1.95,1.38-2.06l-.45,1.85,1.84-.93-.92.93c.71,1.66,1.76,1.43,3.24.92-.62,2.7.91,1.3.93,1.39.29,1.77-1.36.28-1.38,1.39.59-.05,1.29.1,1.85,0-.84.45.26,2.7.93,0-.28.03-.78-.08-.93,0,.84-.14,1.52-1.43,1.62-1.39,1.46.62-.28,1.69-.22,2.09s1.06.51,1.26.77c.08.1-.18,1.8.35,2.23,1.56,1.33-.37-1.88.93-1.85.17,0,.85.94,1.16,1.15-1.94.75-.39.26,0,1.15-2.12.67-2.25,1.93-.69,3.25.53-2.66,2.41-1.95.7-.01,1.37-.33.77,1.31.46,2.32-.67-.49-.74-.74-1.16-1.39-1.86,1.63.29,4.22,1.16,1.39,1.15.85,2.8,1.12,4.17,1.39-1.05,1.27.62,1.42,1.84.92.11.96-.67,1.53-1.07,2.33-.14.28.16.85.1.88-.31.18-1.22-.09-1.35.04-.11.1.83,2.68.93,2.78.1.1,1.15-.66,1.38-.47-1.68,1.75-.04,1.51,1.16,2.77l.69-.92c-.96,1.95,1.44,5.61,2.32,2.32l-1.39-.93c1.08.37,2.89-.23,3.24.92-2.83-.46.19,1.51-1.85,1.4.36.8,1.29.43.93,1.85,1.09-.76,1.66-1.74,3.23-1.38l-3.7,2.77h1.85c.19.15-1.88,2.13.69,4.2.52.42,1.21.12,1.5.3,1.12.7,2.13,1.93.59,2.91-.09-.41.26-1.26-.23-1.39-1.45.91-1.25,2.32.23,1.39.53,2.53.69,1.36,2.31,2.77-1.01.07-3.34,0-2.72,1.63.34.88,1.3.16,1.33.23.1.22-.79,1.68.25,1.85.49.08,1.4-.52,1.55-.4.18.13.14,1.08.81,1.28.43.13,1.03-.33,1.33-.28.23.03,1.14,2.62,1.14,2.87,0,.77-1.11,1.26-.87,2.22.3,1.21,1.85,2.11,2.73.79.07,1.73,1.06,1.59-.7,2.32l-.68-.93v2.77s.92-.92.92-.92l.24,1.39.69-.93c-.16,1.3,1.05,2.49,2.32,2.32.19.79-.65.29-.83.51-.09.12.61,1.9-1.02,2.5.91.5,2.46,1.67,1.38,2.55-.25.2-2.29-1.63-1.38,1.84.72.05.56-.94,1.13-1.41.88-.71,2.14-1.07,3.03-1.83l.47,1.38-1.85,1.39,1.84-.92v2.31c1.25-1.07,2.05.44,1.84,1.6-.24,1.3-2.43-.36-1.83.94.5,1.09,2.3.85,2.3,1.4,0,.59-2.71.06-1.37,2.55l.91-.47v2.78s-1.38.22-1.38.22l.46,1.17.91-.92c-.25,2.51,1.22,1.82,1.32,1.94.17.2.11.87.34,1.24.36.57,1.5,1.32,1.11,1.89-.08.11-1.89.66-1.84,1.87.72.32,2.12-1.09,2.31-.92.85.79-.94,1.05-.93,1.15.29,2.05,1.49-.06,1.39,1.39-3.31,2.88-.26,2.88.21,3.92.25.55-.7,1.82,1.19,1.89.15,1.1-1.95.03-1.39,1.14.46.91,1.77,1.26,2.15,1.73s-.22,2.62,1.55,2.91c-.38.3-1.67.33-.92,1.16.15.17.77-.47,1.12-.48.33-.01.07,1.43,1.19.48.34,2.05-1.65-.15-2.55.92-.81,1.65.96,2.73,1.02,2.89.05.14.59,2.34.6,2.46.02.22-.71.18-.76.31-.14.33.79.99-.61.83v.45c1.53-.17-.11,2.06,2.31.93.21,1.71-2.02.27,0,2.08.06.14-1.62.38-.92,1.62.04.07,1.17-.68,1.29.24.1.7-1.14.85,1.01,1.84-1.06.21-.11,4.19.06,4.35.19.18,1.94-1.06.87,2.83l-1.38-.46c-.31,1.7.74,2.45,1.85,3.47l-.92.23c-.21.76.6.31.78.54.13.16-.23.91.16,1.47.51.74,1.54.86,1.83,1.69-1.57-.65-1.73-.02-2.31,1.39h1.85s-.92,2.32-.92,2.32c.81.18.29-.7.5-.88.09-.07,1.29.62,1.81.42.33,1.61-.73.42-.85.53-1.49,1.39-.09,2.32-.25,3.17-.12.61-.74,1.09-.74,1.16.02.76,1.96.32,1.84,1.15l-1.85.92c2.51.59,2.17,4.19,2.03,6.26-.02.35-.52.74-.5.93.04.35,1.64,1.82,1.24,3.01-1.6.2-7.04.73-7.92-.28l-5.44-15.49c-1.48-1.61-2.39-3.64-2.71-6.09-2.17-1.1-3.56-3.12-4.18-6.07-1.53-.47-2.39-1.8-2.58-3.98-1.63-1.43-2.48-2.86-3.03-4.93-1.48-.18-2.09-.93-1.96-2.41-2.4-.67-3.97-2.49-4.71-5.48-3.22-1.43-4.55-2.2-5.3-5.78l-1.21-.68c-2.1.49-3.36-.42-2.77-2.6-2.54-.95-4.14-2.43-4.78-4.42l-1.83-.41c-5.5-3.09-10.8-6.38-15.92-9.87-.02-25.92,0-51.86,0-77.78Z"/>
  <path class="cls-12" d="M354.63,285.19c.89-.81,2.53.47,3.31.96,3.54,2.23,9.32,6.56,12.92,8.05.75.31,2.01.14,2.23.31.12.1.2,1.51.77,2.24.83,1.05,3.74,1.87,4.17,2.8.31.67-.6,1.56.2,2.09.51.34,1.23-.24,1.87-.04,3.36,1.05,1.86,3.23,3.2,4.7.5.54,1.2.47,1.72.82.87.59,2.27,1.22,2.39,1.31.17.14.9,3.2,1.72,4.07s2.4.81,2.78,1.4c.32.5.04,1.43.31,1.76.17.21,1.07.11,1.52.54.6.57.69,2.13,1.23,2.96s1.54,1.41,1.98,2.18c.55.96.61,2.86.83,3.11.19.22,1.07.12,1.52.55.67.65,1.42,3.99,2.24,4.95.49.57,1.76.77,2.04,1.21.89,1.36.69,4.89,2.77,6.25l5.76,16.23c2.28.18,4.58.05,6.87.08,1.39.02,2.78,0,4.17,0,.4.13.4.29,0,.46-.46,0-.93,0-1.39,0-.24.46-.7.46-1.39,0-.83.95-1.76.66-2.78,0-.05.75-.52.75-1.39,0-.73.66-1.81.66-3.24,0-.6.33-1.24.33-1.85,0-1.72-.18-3.42-.33-5.09-.46-2.04-2.17-3.69-4.7-4.94-7.58-1.75-.24-2.37-1.5-1.84-3.78-2.17.78-3.34-.39-3.53-3.5-1.36.24-2.48-.04-3.1-1.39l-2.22-4.5-1.06.27c-1.44-.39-2.36-1.68-2.76-3.86-1.58.08-2.5-.48-2.76-1.68-2.18-.07-3.41-1.39-3.92-3.45-2.12.39-4.12-.66-6-3.15h-1.26c-1.49-1.61-3.23-3.07-5.34-2.7-.69-1.07-1.91-1.71-3.68-1.91-.9-1.45-1.97-1.71-3.2-.78l-.66-.38c.05-1.79-2.88-4.35-4.46-3.84l-.64-.83c0-8.48,0-16.98,0-25.46Z"/>
  <path class="cls-30" d="M432.41,354.17c-1.23-.03-2.47.01-3.7,0-.93,0-1.85,0-2.78,0s-1.85,0-2.78,0v-.46c2.96,0,6.47-.39,9.26.46Z"/>
  <path class="cls-36" d="M118.98,82.87c2.03.45,4.77,2.7,6.27,4.14,4.77,4.55,10.78,14.16,11.64,20.7.31,2.35-.06,4.25-.32,6.44s.18,6.71-.95,8.61c-3.31,5.61-7.65,10.41-13.87,13.02-1.92.81-8.88,2.51-10.85,2.15-6.55-1.22-13.37-3.24-18.89-7.4-3.61-2.72-6.28-5.98-8.68-9.71,1.88,1.42,3.4,3.23,5.11,4.85,6.33,6,10.27,8.4,18.88,9.83,1.4.23,4.12.9,5.33.6.36-.09.29-.88.62-.94.83-.15,1.76.49,2.66.44,4.48-.23,11.69-4.73,14.4-8.29,11.8-15.42,2.04-34.48-11.35-44.46Z"/>
  <path class="cls-21" d="M121.3,80.56c5.13,2.4,8.7,4.91,12.04,9.26,8.57,11.16,14.12,25.11,7.76,39.01-2.11,4.62-8.01,10.66-12.63,12.69-10.83,4.77-23.77,2.91-33.09-4.02,2.52.6,5.01,2.59,7.4,3.48,13.58,5.07,30.88,1.16,37.13-12.89s1.74-27.84-7.71-38.28c-3.38-3.74-7.12-6.03-10.89-9.25Z"/>
  <path class="cls-23" d="M82.87,115.28c.67.32,1.14.84,1.58,1.42,7.93,10.46,20.84,16.34,33.28,10.51,3.23-1.51,4.78-2.32,7.27-5.68,7.15-9.63,4.13-22.9-3.08-31.67-1.15-1.39-3.35-2.45-3.87-4.22,12.04,8.62,18.18,29.41,5.31,40.27s-33.13,2.94-40.5-10.64Z"/>
  <path class="cls-3" d="M421.76,354.17c.71.51,1.08.17,1.45,1.15.55,1.48.15,11.46-.07,13.43-1.36,12.23-8.68,30.16-18.98,37.27l.53-1.98c12.45-13.02,17.91-30.64,16.07-48.02-.48-.67-.61-1.29-.4-1.85.46,0,.93,0,1.39,0Z"/>
  <path class="cls-53" d="M404.17,406.02c-8.92,9.81-24.03,16.32-37.25,17.15-2.28.14-10.1.35-11.87-.15-.75-.21-.37-.85-.88-1.26,0-.62,0-1.23,0-1.85.84-.17,1.12.01,1.4.68,16.91,1.97,33.92-2.99,46.89-14.51l1.71-.07Z"/>
  <path class="cls-34" d="M145.37,119.91c-.03,2.24.42,7.16-.1,8.93-.15.51-5.09,8.76-5.54,9.04-.15.09-.79-.43-.83-.38,0,.58-.11,1.14-.46,1.63-.78,1.1-6.2,4.85-7.34,5.25-3.52,1.25-5.29.9-8.89.99,1.67-1.1,4.43-1.18,6.13-1.97,6.76-3.16,13.39-9.92,15.66-17.21.72-2.3-.31-4.86,1.36-6.28Z"/>
  <path class="cls-49" d="M111.57,75.93c5.38.3,11.61,2.99,16.22,5.77,5.57,3.35,16.57,14.46,17.55,20.88.19,1.23-.02,2.64.03,3.91-.92-1.27-1.35-2.89-1.94-4.33-4.23-10.21-13.31-18.98-23.67-23.53l-8.19-2.69Z"/>
  <path class="cls-9" d="M354.17,145.83c0,69.44,0,138.9,0,208.34-69.44,0-138.9,0-208.34,0,0-69.44,0-138.9,0-208.34,69.44,0,138.9,0,208.34,0Z"/>
  <path class="cls-46" d="M145.37,134.72c-.07,1.97.26,4.44.03,6.28-.01.11-1,1.83-1.08,1.91-.41.41-1.07.34-1.38.62-.39.35-1.38,1.78-1.61,1.83-1.56.32-4.35-.02-6.14.02l6.13-5.09c.26-1.71,2.68-2.24,2.37-3.6l1.68-1.96Z"/>
  <path class="cls-4" d="M312.96,354.63c1.1.27-.43,1.11-.52,1.07-.24-.09,3.28-2.27,1.95,2.36,1.53,1.22,2.25,3.59,1.97,5.51l.66.45c2.07-.36,2.84,1.04,2.3,4.2,2.38.32,2.56,2.49,2.6,4.5,1.94,1.52,3.41,3.33,4.4,5.46.52,2.08,2.05,4.14,3.91,5.05.57,1.62,1.1,1.88,2.69,2.5,0,1.66.76,2.53,2.2,3.43-.08,1.43.82,2.31,2.69,2.65.76,1.63,1.9,2.64,3.43,3.05.11,1.72,1.42,2.88,3.93,3.47.35,1.14,1.04,1.69,2.05,1.65,1.46,1.9,3.47,3.33,6.03,4.28l.43,1.29c.34,1.69.34,3.4,0,5.09-3.75-1.16-10.25-4.69-13.94-6.67-3.4-1.82-6.27-4.52-9.5-6.7-7.42-5.02-14.18-10.77-19.93-17.8-.61-.75-2.13-4.12-2.65-4.52-.71-.55-2-.32-2.11-.43-.15-.15.1-1.74-.11-2.44-.06-.19-2.07-3.2-2.2-3.35-.78-.88-2.58-.84-3.05-1.59-.84-1.34.79-2.61.5-3.26-.41-.93-2.43-1.78-2.51-1.92-.3-.54.46-1.43.34-1.97-.13-.59-2.5-1.57-2.94-2.6-.29-.68.49-1.94-.69-2.76,6.01,0,12.04,0,18.06,0Z"/>
  <path class="cls-50" d="M420.37,354.17c.51.45,1.01.63,1.22,1.35.61,2.05.33,10.21.17,12.81-.93,14.91-7.9,27.04-17.6,37.7-8.19,5.65-13.86,10.69-24.04,13.6-5.22,1.49-19.1,3.1-24.25,2.03-1.3-.27-1.13-.73-1.71-1.74,0-.62,0-1.23,0-1.85v-.93c.69-.66.94-.41.46.46.5.43,1.38.56,2.65.38,13.82,2.62,28.86-1.07,40.41-9.17l.51-1.56c5.75-4.33,10.44-9.89,13.79-16.25l1.44-.71c4.68-11.27,7.56-24.43,4.17-36.11.93,0,1.85,0,2.78,0Z"/>
  <path class="cls-37" d="M354.17,413.43c.91,1.22.91,2.49,0,3.7,0,.31,0,.62,0,.93-.86-2.07-.46-5.05-.46-7.41.12-.4.28-.39.46,0,.68,1.28.68,2.21,0,2.78Z"/>
  <path class="cls-19" d="M212.96,356.02l.47,2.31c-.55.55-4.14-2.59-.47-2.31Z"/>
  <path class="cls-19" d="M215.42,357.28c.25.41,2.19.51-.6,1.52v-2.77c.81-.14.27.72.6,1.25Z"/>
  <path class="cls-19" d="M222.69,362.97c-.69,1.96-1.28,2.15-1.39,0h1.39Z"/>
  <path class="cls-19" d="M210.18,356.94h-.92c-.15-.68.2-.96.69-1.38l.23,1.38Z"/>
  <path class="cls-37" d="M354.63,310.65l1.37-.22c-.23-.73,1.58-1.43,1.87-1.17-1.68,2.42,2.05,3.01,2.55,4.14.2.45-.38,1.26-.23,1.41.56.55,2.78-2.7,4.16-1.38l-1.38,1.15c1.18,1.86,2.7,1.46,4.62,1.63l-.46,1.84,1.62-2.31c.96.45.1,1.48.29,1.75.34.51,1.61.53,2.02.69.29.12.19.82.51.8.37-.01.96-.64,1.11-.47.2.21-.54.91-.24,1.39.51.82,1.31-.04,1.56.09.13.08,1.77,1.49,2.26,1.89.37.3.44,1.13,1.07,1.5.79.46,3.58-.39,3.69-.24s-.63,1.81,1.06,3.1c.87.66,2.32.42,2.58.7.22.23-.19,1.07.36,1.31.49.21,1.64-.01,2.21.4.53.39-.27,1.92,1.66,1.44-1.78,1.26.62,3.5,1.15,1.39,1.91.72,2.97,5.79,4.04,6.38.61.34,1.61-.13,2.14.17.74.42.87,3.5,1,3.63.27.28,2.51-.74,2.77-.47.41.43-.09,3.52.02,3.67.15.2,1.27.13,1.71.63.3.33,1.06,2.46,1.59,3.26,1.03,1.54,3.03,2.75,2.69,4.94-2.74.54-5.56.28-8.33,0-8.63-7.48-18.37-14.24-28.74-19.36-2.13-1.06-3.45-1.69-5.63-.78-2.12-1.88-4.94-2.7-7.78-2.62l-.91-.85c-.01-6.47,0-12.97,0-19.44Z"/>
  <path class="cls-37" d="M331.02,354.63c.6.37,1.08.86,1.41,1.48,3.09,15.77,11.77,28.82,21.28,41.11.38,2.76.37,5.58,0,8.33-2.23-1.49-4.22-1.8-6.29-3.68-.39-.36-.6-1.26-.73-1.33-.17-.1-.93.52-1.34.2-.44-.35-.27-1.41-.73-1.71-.51-.34-1.58-.51-2.69-1.16-.38-.23-.92-.13-1.08-.25-.11-.08-.24-2.35-.59-2.7-.06-.05-.89.55-1.36.26-.59-.36-.8-2.02-1.59-2.61-.7-.52-2.95-.78-3.04-.91-.28-.41,1.42-3.12-1.85-2.3,1.05-2.34-1.08-1.43,0-3.24-1.25-.31-.93.77-1.6,1.4-.59.55-1.12.21-1.18-.25-.07-.53.73-1,.76-1.38.04-.52-1.01-1.69-.76-2.54-1.49,1.64-3.77.77-1.39-.69-.94-.62-1.65-.76-1.39-2.09l-2.3.23c2.04-.6.99-2.21.12-3.82-.7-1.3-3.31-3.32-3.57-3.8s.06-2.72-.84-3.62c-.41-.41-1.51-.36-1.68-.63-.52-.83.08-3.96-.07-4.1-.12-.12-2.16.84-3.02-.94-.26-.55.25-1.4-.06-2.19s-.55-1.36-.93-2.31c-.22-.56-.98-.51-1.08-.89-.08-.31.35-2.4.45-2.93-.67-.43-1.73,1.41-2.31.92-.87-.73,1.54-1.34,1.39-1.85,6.01,0,12.04-.01,18.06,0Z"/>
  <path class="cls-6" d="M354.63,330.09c2.78-.32,5.09.31,7.58,1.44.52.23,1.04,1.19,1.44,1.21.47.03.95-.9,2.09-.62,3.98.98,11.89,5.88,15.51,8.14,4.98,3.11,8.13,5.2,12.42,9.1,1.41,1.28,3.88,1.76,4.01,4.32-2.93.34-5.87.33-8.8,0l-2.29-.79c-9.01-6.04-20.27-9.36-31.08-10.58l-.89-1.13c-.01-3.7,0-7.41,0-11.11Z"/>
  <path class="cls-13" d="M342.13,354.63c.43.02.97.21.98.58.07,4.17.26,6.18,1.52,10.43,2.19,7.39,5.09,14.72,9.12,21.25.44,3.38.42,7.09-.04,10.33-.99.02-1.26-.59-1.78-1.23-6.97-8.55-13.29-17.76-17.08-28.29-1.53-4.26-2.49-8.76-3.83-13.07,3.7,0,7.41-.01,11.11,0Z"/>
  <path class="cls-42" d="M388.89,353.7c-3.08.33-6.18.38-9.26,0-8.32.01-16.74-.34-25,.46-.01-4.31.01-8.65,0-12.96,3.3.76,7.34.94,10.55,1.72,5.17,1.27,15.1,4.92,19.7,7.61,1.24.73,2.94,2.14,4.01,3.17Z"/>
  <path class="cls-48" d="M342.13,354.63c4.01.01,8.03,0,12.04,0-.67,7.89-.57,15.92-.48,23.86.02,1.51.46,3.07.48,4.84.41,1.15.41,2.07,0,2.78.58,1.68.58,3.07,0,4.17.55,1.81.55,3.36,0,4.63.55,1.01.55,1.78,0,2.31.28.78.42,1.57,0,2.31.74,1.2.74,2.13,0,2.78.35,1.07.35,2.16,0,3.24.58,1.08.58,1.85,0,2.31.63,1.04.95,1.96,0,2.78-.14-.04-.32.04-.46,0,0-1.69,0-3.4,0-5.09,0-2.77.03-5.56,0-8.33-.02-2.48.44-7.33-.01-9.4-.07-.33-.77-.43-1.06-.9-4.51-7.39-9.43-20.32-10.71-29-.14-.98.44-2.22.2-3.29Z"/>
  <path class="cls-72" d="M384.06,355.75c2.13,1.42,5.45,5.55,6.79,7.79,13.63,22.92-10.04,41.19-30.89,24.41-3.91-3.15-5.45-5.24-5.82-10.39-.51-7.18-.07-15.56.89-22.67.65-.92,19.9-.92,22.52-.75,2.31.15,4.63.36,6.5,1.6Z"/>
  <path class="cls-2" d="M386.57,354.17c3.12.17,5.13,2.64,6.63,5.16,15.56,26.09-6.41,48.74-33.46,33.78-2.9-1.6-5.8-3.44-5.58-7,0-.93,0-1.85,0-2.78.57,2.61,2.88,4.86,4.98,6.47,8.68,6.64,24.08,9.38,32.07.27,7.87-8.97,5.42-21.82-1.21-30.77-1.61-2.18-3.61-4.39-6.21-5.13.92-.34,1.86-.34,2.78,0Z"/>
  <path class="cls-32" d="M388.89,353.7c2.93,0,5.87,0,8.8,0,2.77,0,5.56-.01,8.33,0,1.6,0,3.87-.39,5.09.46-.28.32-.6.25-.93,0-.29.58-1.06.58-2.31,0l-.28.61c-.84-.42-1.62-.53-2.5-.15-.27.89-.82.85-1.63-.12l-1.61-.34c-.46.42-1.24.42-2.31,0-.13.62-.75.62-1.85,0-.76.49-1.84.49-3.24,0-1.26.58-2.8.58-4.63,0-.77.69-1.85.69-3.24,0-.93,0-1.85,0-2.78,0-1.31,0-3.25.38-4.17-.46,3.08,0,6.18,0,9.26,0Z"/>
  <path class="cls-19" d="M364.82,211.12c.1.09-.55,1.06-.51,1.58s1.18-.06.97.73c-.43.11-1.29.19-1.58.41-.61.46.17,1.57-.73,1.44-1.14-2.25.47-2.42.48-2.58.04-.51-.71-1.33-.48-2.05.45.43,1.78.4,1.85.47Z"/>
  <path class="cls-19" d="M364.82,219.9c-.92-1.3,1.85-2.8,2.31-1.15.52,1.85-1.94,1.68-2.31,1.15Z"/>
  <path class="cls-19" d="M367.59,215.28c.06.03-.62,1.08.23,1.38.19-.81,1.59-1.95,2.08-.69.19.49-1.95-.33-1.38,1.16.78-1.29,1.98,1.75,1.85,1.84-.15.11-1.11.14-1.29-.22-.03-.07.26-.54.14-.71-.34-.48-.87.01-1.06-.13-.37-.28-.55-1.79-1.46-1.22-.06.03.04,1.69-.95.89-.14-.11.13-3.2,1.85-2.31Z"/>
  <path class="cls-19" d="M395.38,268.52c-.36-.5.24-2.05,1.15-1.85,1.75.4-.99,2.06-1.15,1.85Z"/>
  <path class="cls-19" d="M376.39,224.54c-.98,1.89-1.72,3.41,0,5.08-1.02.1-1.42.86-1.85-.45l.92-.23c-1.27-1.61-2.08-1.79,0-2.78.08-.88-3.99-2.54.93-1.62Z"/>
  <path class="cls-19" d="M378.24,225.93l-1.85,1.85c.24-1.85,0-2.68,1.85-1.85Z"/>
  <path class="cls-19" d="M356.48,209.72c.82-.88,2.07,1.85.69,1.84-.48,0-.98-1.53-.69-1.84Z"/>
  <path class="cls-19" d="M371.76,225c.2.19-.58,1.77-.47,2.31-1.57-.2-.5-3.21.47-2.31Z"/>
  <polygon class="cls-19" points="384.26 239.82 383.79 241.67 382.41 241.2 384.26 239.82"/>
  <path class="cls-12" d="M361.57,275.47c.5.44-.95,1.88-1.38,1.38-.7-.79.6-2.08,1.38-1.38Z"/>
  <path class="cls-19" d="M379.63,238.43c.06.06-.02.3,0,.45-3.05,1.04-1.92-2.26,0-.45Z"/>
  <path class="cls-19" d="M360.18,213.89c-1.17-.36-.95-1.76-.92-2.78h.45s.46,2.78.46,2.78Z"/>
  <path class="cls-19" d="M377.32,234.26c-.27-.27.39-1.38.69-1.38,1.28,0,0,2.08-.69,1.38Z"/>
  <path class="cls-19" d="M391.67,256.02l1.38-.47c.05,1.29-.91,1.86-1.38.47Z"/>
  <path class="cls-19" d="M400.92,274.07c.82,1.32-2.2,1.32-1.38,0h1.38Z"/>
  <path class="cls-19" d="M372.22,230.56c-.3-.28-1.49-.46-1.38-.69.5-1.12,1.53-.45,1.38.69Z"/>
  <path class="cls-68" d="M416.2,354.17c1.67.23,2.01,1.83,2.27,3.3,1.99,11.12-.92,22.66-5.05,32.82-4.34,8.08-8.21,12.77-15.74,18.52-6.37,4.17-12.46,7.17-20.28,8.77-7.6,1.55-15.65,1.71-22.77.03-.04-.2-.27-.39-.46-.46,0-1.23,0-2.47,0-3.7,15.42,3.25,32.6,1.43,45.37-8.8-.35-.61.27-1.14.93-.93,1.23-.89,2.31-1.97,3.24-3.24.27-1.5,1.95-3.27,3.24-4.17,3.73-4.68,6.16-10.75,7.41-16.67l-.45-.65c.81-4.03,1.36-8.17,1.23-12.29s-.9-9.11-2.17-12.52c1.08,0,2.16,0,3.24,0Z"/>
  <path class="cls-59" d="M411.11,354.17c.62,0,1.23,0,1.85,0l1.88.72c-.24,4.27,1.36,9.06,1.23,13.22-.11,3.55-.69,8.15-1.72,11.52-.6,3.05-1.43,6.11-2.96,8.84l-.74-.05-.15-.99c2.84-7.27,2.99-14.37,2.94-22-.02-3.19-.68-8.37-2.33-10.81-.3,1.49-1.56.93-.93-.46.31,0,.62,0,.93,0Z"/>
  <path class="cls-73" d="M417.59,354.17c1.5.82,1.51,2.9,1.67,4.48,1.1,10.79-.79,22.23-5.84,31.63.55-1.55.9-3.72,1.43-5.2,3.03-8.53,4.52-17.32,3.13-26.54-.16-1.09-.8-3.82-1.79-4.37.46,0,.93,0,1.39,0Z"/>
  <path class="cls-16" d="M397.69,408.8c-10.84,8.27-23.85,11.49-37.56,10.36-.8-.07-5.24-.53-5.47-.69-.17-.13.02-.65-.03-.88,1,0,2.03-.58,3.02-.51,1.06.07,1.61.9,2.32.97,9.63.89,23.8-1.22,32.31-6.1,1.68-.96,3.26-3.1,5.41-3.16Z"/>
  <path class="cls-59" d="M399.54,404.63c-9.3,10.41-30.41,12.88-43.67,10.08-.86-.18-1.26-.58-1.71-1.28,0-.93,0-1.85,0-2.78.12-.4.28-.39.46,0,.74.24,1.01.55.81.92,14.43,3.92,29.99,1.67,42.15-6.94l.56.46c.55-.59,1.02-.75,1.39-.46Z"/>
  <path class="cls-20" d="M407.87,354.17c1.63.19,2.89.51,2.53,2.38,4.92,17.74.66,40.46-16.89,49.48-10.85,6.83-22.94,7.08-35.17,4.9-1.84-.33-4.14-.82-4.18-3.05,0-.77,0-1.54,0-2.31,10.67,4.94,24.13,4.36,35.65.46,14.89-8.9,19.66-20.17,19.4-37.02-.06-4.12-1.26-11.3-3.66-14.37-.12.4-.28.39-.46,0,.51-.78,1.9-.45,2.78-.46Z"/>
  <path class="cls-45" d="M397.69,354.17c4.43.65,6.13,9.72,6.6,13.55,3.64,29.57-17.94,42.51-44.76,34.25-2.54-.78-5.41-1.71-5.36-4.75,0-.77,0-1.54,0-2.31.13-.4.29-.4.46,0,1.1,1.82,3.66,2.88,5.64,3.68,25.3,10.15,47.48-5.54,40.16-33.31-.92-3.48-3.09-8.68-5.06-10.65-.28,1.48-1.55.88-.93-.46,1.08.02,2.16-.03,3.24,0Z"/>
  <path class="cls-22" d="M401.85,354.17c1.02.17,1.99.47,2.92.92,5.83,16.59,4.46,38.72-13.11,47.69-2.97,2.66-8.68,4.16-12.88,4.6-4.69.49-20.77.03-23.6-3.27-.22-.26-.4-.56-.56-.86-.19-.12-.35-.43-.46-.93,0-.93,0-1.85,0-2.78,32.57,16.81,62.17-9.47,46.57-43.89-1.05-.23-1.45-.72-1.2-1.48.77.03,1.55-.05,2.31,0Z"/>
  <path class="cls-29" d="M389.81,354.17c.67.14,1.29.3,1.85.46,17.32,19.73,5.4,51.19-23.29,43.92-4.56-1.15-11.01-3.65-13.75-7.35-.19-.12-.35-.43-.46-.93-.01-1.39.01-2.78,0-4.17.78.38.23,1.61.57,2.21.18.33,5.3,3.91,6.05,4.36,24.21,14.25,46.39-7.11,32.45-31.52-1.45-2.53-3.97-6.02-6.66-6.99,1.08,0,2.16,0,3.24,0Z"/>
  <path class="cls-35" d="M399.54,354.17c.37.72,1.48.13,1.87.77.53.88,2.12,5.79,2.46,7.06,7.79,28.62-11.74,48.65-40.46,41.95-2.72-.63-8.04-1.94-9.24-4.41,0-.77,0-1.54,0-2.31.68.42.19,1.37.76,1.9.51.48,5.48,2.25,6.55,2.6,27.71,8.86,48.62-9.68,41.08-38.3-.79-2.98-2.06-7.82-4.87-9.25.62.01,1.24-.02,1.85,0Z"/>
  <path class="cls-40" d="M394.44,354.17c.11.47.54.41.93.46.29.07.57.17.77.34,1.9,1.61,5.09,13.1,5.46,15.98,3.05,23.39-16.71,35.7-37.82,28.91-3.16-1.02-7.16-2.35-9.15-4.95h-.46c-.01-1.54.01-3.09,0-4.63.45.12.44.54.46.93,4.06,5.02,13.63,7.98,20.15,8.26,25.92,1.1,31.76-28.48,16.89-44.83-.53-.12-1.53.31-1.85-.46,1.54,0,3.09-.02,4.63,0Z"/>
  <path class="cls-38" d="M354.63,403.24c1.88,2.39,8.33,3.69,11.56,3.98,9.73.9,13.96.38,23.21-2.83.48-.17.92-.08,1.34.24.51.2.2.67-.93,1.39-6.96,3.15-13.85,4.27-21.55,3.72-2.66-.19-10.89-1.55-13.07-2.64-.71-.36-.57-1.02-1.03-1.54,0-1.08,0-2.16,0-3.24.46.11.43.54.46.93Z"/>
  <path class="cls-46" d="M393.52,406.02c.29.14.29.29,0,.46-2.8,3.04-7.98,4.54-12.11,5.55-8.72,2.13-16.48,1.52-25.18-.2-.71-.14-1.24-.53-1.6-1.18-.14-.04-.32.04-.46,0,0-.93,0-1.85,0-2.78.94,1.53,3.69,2.33,5.44,2.7,11.05,2.38,23.99.9,33.91-4.55Z"/>
  <path class="cls-52" d="M360.35,385.48c-2.15-2.15-5.4-7.26-5.72-10.25-.23-2.12-.34-11.14.11-12.85.66-2.49,5.3-7.31,8.03-7.71,6.09-.88,14.5-.61,19.59,3.01,8.86,6.3,14.55,19.83,7.18,29.31-7.41,9.54-21.7,5.98-29.19-1.51Z"/>
  <path class="cls-33" d="M405.09,354.63c.15.03.32-.04.46,0,.36.12.67.26.8.5,1.62,2.97,2.53,9.76,2.82,13.29.76,9.47-1.17,19.51-7.1,27.13-2.21,2.84-5.59,6.66-9.02,7.23-.75.48-1.21.48-1.39,0,13.6-8.44,17.47-23.39,14.68-38.52-.32-1.72-1.9-8.08-2.61-9.32-.36-.63-1.53-.04-1.88-.77,1.27.08,2.02.2,3.24.46Z"/>
  <path class="cls-25" d="M410.19,354.17c.12.47.54.41.93.46.66.27.9.74,1.01,1.39,2.25,14.23,2.52,29.79-7.49,41.2-2.56,3.86-6.74,8.11-11.11,9.26v-.46c16.69-9.18,21.44-32.11,16.04-49.07-.38-1.18.89-1.89-1.69-2.79.77-.01,1.54,0,2.31,0Z"/>
  <path class="cls-59" d="M406.94,396.3c-.07-.41.09-.87.46-1.39-.44-.61.17-1.67.93-1.39l2.31-4.63c-.4-.12-.39-.28,0-.46,1.84-2.31,2.83-5.93,3.7-8.8-.43,5.25-2.81,10.97-5.78,15.29-.46.66-.49,1.45-1.63,1.38Z"/>
  <path class="cls-59" d="M406.94,396.3c-.78,1.38-2.23,2.87-3.24,4.17-.95,1.29-2.03,2.37-3.24,3.24-.27.29-.58.54-.93.93-.42.3-.92.31-1.39.46l-.3-.64c2.46-2.07,4.72-4.32,6.79-6.76.81-1.39,1.74-2.32,2.78-2.78-.06.5-.22.95-.46,1.39Z"/>
  <path class="cls-59" d="M400.46,403.7c1.03-1.11,1.86-2.47,3.24-3.24-.79,1.01-1.35,3.13-3.24,3.24Z"/>
  <path class="cls-63" d="M411.11,354.63c.37.05,1.21-.14,1.36.02.27.31,1.31,7.08,1.41,8.08.97,9.32-.3,16.89-3.24,25.69-.05.14.05.32,0,.46l-2.31,4.63c-.3.42-.7,1.12-.93,1.39-.81.97-1.7,2.07-2.78,2.78v-.46c9.19-11.96,9.79-28.39,6.48-42.59Z"/>
  <path class="cls-47" d="M404.63,397.69c-1.24,2.92-4.7,4.71-6.48,7.41-2.32.74-4.26,2.68-6.54,3.88-10.26,5.38-24.63,6.18-35.8,3.51-1.21-.29-1.24-.7-1.18-1.83,13.65,3.78,26.58,2.91,38.89-4.17,4.21-2.42,8.07-5.3,11.11-9.26v.46Z"/>
  <path class="cls-74" d="M405.56,354.63c.72.2,1.15-.32,1.78.77.73,1.26,2.17,8.76,2.38,10.58,1.92,16.37-4.38,33.01-19.9,40.04l.93-1.39c-.18-.92.59-1.54,2.31-1.85,17.13-10.54,18.12-30.44,12.5-48.15Z"/>
  <path class="cls-51" d="M395.37,354.63c.38.06.95-.18,1.3.08.26.19,2.45,5.05,2.76,5.82,9.18,23.15-3.63,44.89-29.69,41.26-4.06-.57-10.73-2.51-14.06-4.92-.83-.6-1.23-.76-1.05-1.96,23.27,14.83,53.26,2.43,45.6-28.24-1.1-4.4-3.32-7.86-4.86-12.04Z"/>
  <path class="cls-33" d="M393.06,402.78c-.55.34-1.5,1.45-2.31,1.85-6.31,3.13-16.37,4.4-23.32,3.64-1.61-.18-11.08-2.22-12.03-2.78-1.1-.65-.68-1.24-.77-2.24,8.63,3.25,18.18,4.86,27.34,3.03,3.46-.69,6.63-2.66,9.7-3.49.37-.1.96.07,1.39,0Z"/>
  <path class="cls-27" d="M391.67,354.63c2.41.53,3.56,2.98,4.71,5.24,11.18,21.94-2.52,45.36-28.21,39.31-2.25-.53-12.41-4.62-13.43-6.24-.3-.47-.07-1.2-.1-1.74,3.45,2.2,6.68,4.43,10.66,5.77,12.43,4.18,27.2,1.77,32.14-11.81,3.94-10.83.33-21.39-5.76-30.53Z"/>
  <path class="cls-57" d="M390,371.62c.62,1.84,1.23,2.92,1.21,5.47-.03,6.78-4.16,12.24-10.85,13.73-5.57,1.24-12.79-1.74-16.91-5.43-5.4-4.84-8.98-13.85-6.06-20.81.19-.45,2.64-4.62,2.84-4.81.09-.08,1.38.22,2.13-.64.25-.28.05-.93.23-1.12.25-.27,5.52-1.78,6.31-1.86,6.92-.74,16.49,4.87,19.7,11.04.74,1.41.89,2.97,1.39,4.45Z"/>
  <path class="cls-59" d="M408.33,393.52c.13-1.61,1.38-3.3,2.31-4.63-.86,2.51-.79,2.48-2.31,4.63Z"/>
  <path class="cls-60" d="M368.73,358.55c5.98-1,12.4,2.07,16.46,6.48,4.82,5.24,7.04,16.32,1.11,21.5-9.82,8.58-26.51-1.38-27.5-13.16-.23-2.79-.08-6.39,1.29-8.88s6-5.5,8.64-5.94Z"/>
  <path class="cls-39" d="M367.44,383.49c-5-4.43-7.66-11.72-3.94-17.92.51-.85,1.29-.59,1.63-.91,1.36-1.27.74-1.4,3.03-2.3,2.89-1.12,3.21-.72,5.74-.48.65.06,1.32-.43,2.14-.24.44.1,5.77,3.4,6.33,3.9,2.97,2.67,5.69,7.45,5.47,11.51-.28,5.31-2.89,9.49-8.47,10.4-5.16.84-8.28-.74-11.92-3.97Z"/>
  <path class="cls-62" d="M379.49,367.25c.56.31,3.86,3.64,4.13,4.15.19.35.13,1.99.29,2.43s1.23.48,1.18,2.46c-.01.64-.37,3.78-.53,4.16-.06.13-1.57,2-1.73,2.16-2.62,2.5-7.21,2.82-10.31,1.1-.62-.34-.68-1.07-1.1-1.34-.48-.32-1.25.05-1.43-.08-1.97-1.44-3.98-6.04-4.18-8.51-.04-.45.39-4,.49-4.21.06-.13,1.82-1.93,1.94-2.01.65-.41,1.44-.34,2.1-.7.37-.2.36-.96.71-1.06.57-.17,5.11.3,5.9.53.6.17.9.85,1.27,1,.41.16.91-.26,1.25-.07Z"/>
</svg>